<svg width="32" height="32" viewBox="0 0 32 32" fill="none" xmlns="http://www.w3.org/2000/svg">
<rect width="32" height="32" rx="6" fill="#B5A8D5"/>
<path d="M19.9856 13.5216L14.7356 10.0216C14.6038 9.93362 14.4506 9.88312 14.2923 9.87546C14.1341 9.86779 13.9767 9.90324 13.837 9.97803C13.6973 10.0528 13.5806 10.1641 13.4992 10.3001C13.4178 10.436 13.3749 10.5916 13.375 10.75V17.75C13.3749 17.9084 13.4178 18.064 13.4992 18.1999C13.5806 18.3359 13.6973 18.4472 13.837 18.522C13.9767 18.5968 14.1341 18.6322 14.2923 18.6245C14.4506 18.6169 14.6038 18.5664 14.7356 18.4784L19.9856 14.9784C20.1056 14.8986 20.2041 14.7903 20.2721 14.6632C20.3402 14.5361 20.3759 14.3942 20.3759 14.25C20.3759 14.1058 20.3402 13.9639 20.2721 13.8368C20.2041 13.7097 20.1056 13.6014 19.9856 13.5216ZM15.125 16.1148V12.3906L17.9228 14.25L15.125 16.1148ZM25.625 6.375H6.375C5.91087 6.375 5.46575 6.55937 5.13756 6.88756C4.80937 7.21575 4.625 7.66087 4.625 8.125V20.375C4.625 20.8391 4.80937 21.2842 5.13756 21.6124C5.46575 21.9406 5.91087 22.125 6.375 22.125H25.625C26.0891 22.125 26.5342 21.9406 26.8624 21.6124C27.1906 21.2842 27.375 20.8391 27.375 20.375V8.125C27.375 7.66087 27.1906 7.21575 26.8624 6.88756C26.5342 6.55937 26.0891 6.375 25.625 6.375ZM25.625 20.375H6.375V8.125H25.625V20.375Z" fill="#211C84"/>
<path d="M27.1187 25.3687C27.2828 25.2046 27.375 24.9821 27.375 24.75C27.375 24.5179 27.2828 24.2954 27.1187 24.1313C26.9546 23.9672 26.7321 23.875 26.5 23.875H21.8333V25.625H26.5C26.7321 25.625 26.9546 25.5328 27.1187 25.3687Z" fill="#211C84"/>
<path d="M4.88128 25.3687C5.04538 25.5328 5.26794 25.625 5.5 25.625H10.1667V23.875H5.5C5.26794 23.875 5.04538 23.9672 4.88128 24.1313C4.71719 24.2954 4.625 24.5179 4.625 24.75C4.625 24.9821 4.71719 25.2046 4.88128 25.3687Z" fill="#211C84"/>
<path d="M20.2857 20H11.7143C11.5248 20 11.3432 20.0737 11.2092 20.205C11.0753 20.3363 11 20.5143 11 20.7V26.3C11 26.4857 11.0753 26.6637 11.2092 26.795C11.3432 26.9262 11.5248 27 11.7143 27H20.2857C20.4752 27 20.6568 26.9262 20.7908 26.795C20.9247 26.6637 21 26.4857 21 26.3V20.7C21 20.5143 20.9247 20.3363 20.7908 20.205C20.6568 20.0737 20.4752 20 20.2857 20ZM20.2857 26.3H11.7143V20.7H20.2857V26.3ZM15.5946 24.5373C15.6421 24.6177 15.655 24.7132 15.6305 24.8029C15.6061 24.8925 15.5463 24.969 15.4643 25.0155C15.1928 25.1691 14.8849 25.25 14.5714 25.25C14.258 25.25 13.95 25.1692 13.6785 25.0156C13.4071 24.862 13.1816 24.6411 13.0249 24.375C12.8682 24.109 12.7856 23.8072 12.7856 23.5C12.7856 23.1928 12.8682 22.891 13.0249 22.625C13.1816 22.3589 13.4071 22.138 13.6785 21.9844C13.95 21.8308 14.258 21.75 14.5714 21.75C14.8849 21.75 15.1928 21.8309 15.4643 21.9845C15.5062 22.0068 15.5431 22.0371 15.5729 22.0736C15.6027 22.1101 15.6247 22.1521 15.6376 22.1971C15.6505 22.2421 15.6542 22.2892 15.6482 22.3355C15.6423 22.3819 15.627 22.4267 15.6031 22.4671C15.5793 22.5076 15.5474 22.543 15.5093 22.5712C15.4713 22.5994 15.4279 22.6198 15.3817 22.6313C15.3354 22.6428 15.2873 22.6451 15.2402 22.6381C15.193 22.6311 15.1478 22.6149 15.1071 22.5904C14.9443 22.4984 14.7595 22.4499 14.5715 22.45C14.3835 22.4501 14.1987 22.4986 14.0359 22.5908C13.8731 22.683 13.7379 22.8155 13.6439 22.9751C13.5499 23.1347 13.5004 23.3157 13.5004 23.5C13.5004 23.6843 13.5499 23.8653 13.6439 24.0249C13.7379 24.1845 13.8731 24.317 14.0359 24.4092C14.1987 24.5014 14.3835 24.5499 14.5715 24.55C14.7595 24.5501 14.9443 24.5016 15.1071 24.4096C15.1891 24.3632 15.2865 24.3507 15.3779 24.3746C15.4693 24.3986 15.5472 24.4571 15.5946 24.5373ZM19.1661 24.5373C19.2135 24.6177 19.2264 24.7132 19.2019 24.8029C19.1775 24.8925 19.1177 24.969 19.0357 25.0155C18.7643 25.1691 18.4563 25.25 18.1428 25.25C17.8294 25.25 17.5214 25.1692 17.25 25.0156C16.9785 24.862 16.7531 24.6411 16.5963 24.375C16.4396 24.109 16.3571 23.8072 16.3571 23.5C16.3571 23.1928 16.4396 22.891 16.5963 22.625C16.7531 22.3589 16.9785 22.138 17.25 21.9844C17.5214 21.8308 17.8294 21.75 18.1428 21.75C18.4563 21.75 18.7643 21.8309 19.0357 21.9845C19.0776 22.0068 19.1146 22.0371 19.1443 22.0736C19.1741 22.1101 19.1961 22.1521 19.209 22.1971C19.222 22.2421 19.2256 22.2892 19.2197 22.3355C19.2137 22.3819 19.1984 22.4267 19.1745 22.4671C19.1507 22.5076 19.1188 22.543 19.0808 22.5712C19.0427 22.5994 18.9993 22.6198 18.9531 22.6313C18.9069 22.6428 18.8588 22.6451 18.8116 22.6381C18.7645 22.6311 18.7192 22.6149 18.6786 22.5904C18.5157 22.4984 18.3309 22.4499 18.1429 22.45C17.9549 22.4501 17.7702 22.4986 17.6074 22.5908C17.4445 22.683 17.3093 22.8155 17.2153 22.9751C17.1213 23.1347 17.0718 23.3157 17.0718 23.5C17.0718 23.6843 17.1213 23.8653 17.2153 24.0249C17.3093 24.1845 17.4445 24.317 17.6074 24.4092C17.7702 24.5014 17.9549 24.5499 18.1429 24.55C18.3309 24.5501 18.5157 24.5016 18.6786 24.4096C18.7605 24.3632 18.8579 24.3507 18.9493 24.3746C19.0407 24.3986 19.1187 24.4571 19.1661 24.5373Z" fill="#211C84"/>
</svg>